<?xml version="1.0" encoding="iso-8859-1"?>
<!-- Generator: Adobe Illustrator 20.0.0, SVG Export Plug-In . SVG Version: 6.00 Build 0)  -->
<!DOCTYPE svg PUBLIC "-//W3C//DTD SVG 1.1//EN" "http://www.w3.org/Graphics/SVG/1.1/DTD/svg11.dtd">
<svg version="1.1" id="Layer_1" xmlns="http://www.w3.org/2000/svg" xmlns:xlink="http://www.w3.org/1999/xlink" x="0px" y="0px"
	 viewBox="0 0 350 150" style="enable-background:new 0 0 350 150;" xml:space="preserve">
<g>
	<path style="fill:#FFFFFF;" d="M264.915,63.319c-2.597,0-3.438-1.687-3.438-9.9c0-8.213,0.703-9.684,3.438-9.684
		c2.533,0,3.443,1.471,3.443,9.896C268.358,61.774,267.654,63.319,264.915,63.319 M264.635,92.082c-6.32,0-8.282-2.468-8.282-6.329
		c0-2.735,0.492-4.605,1.264-5.451h12.217c4.495,0,6.6,1.338,6.6,4.844C276.433,89.499,272.572,92.082,264.635,92.082
		 M263.021,94.118c12.497,0,21.699-5.883,21.699-15.71c0-7.579-5.41-9.758-12.29-9.758h-14.326c-2.316,0-3.015-0.768-3.015-1.894
		c0-1.333,0.63-2.385,1.053-2.946c2.105,0.841,5.548,1.471,8.774,1.471c9.128,0,15.94-4.422,15.94-12.281
		c0-3.443-2.385-6.177-5.125-8.002v-0.142c1.687-1.19,3.649-1.756,4.426,0.423c0.63,1.756,1.19,2.735,3.507,2.735
		c2.739,0,3.727-1.894,3.727-3.93c0-2.946-2.041-4.284-4.706-4.284c-3.231,0-6.039,1.967-8.218,4.072
		c-2.385-1.19-5.828-2.105-9.551-2.105c-9.128,0-15.935,4.491-15.935,12.286c0,4.21,2.105,7.087,5.755,8.986v0.138
		c-2.597,1.544-5.686,4.633-5.686,8.843c0,3.865,2.036,6.458,7.018,7.722v0.142c-6.108,0.703-9.266,3.622-9.266,6.991
		C246.801,91.788,251.995,94.118,263.021,94.118"/>
	<path style="fill:#FFFFFF;" d="M203.437,79.602h21.625v-1.19l-1.053-0.28c-2.385-0.634-2.528-0.703-2.528-4.284V49.418
		c1.195-0.28,2.666-0.418,4.633-0.418c2.602,0,4.141,1.053,4.141,4.84v20.007c0,3.507-0.069,3.649-2.528,4.284l-1.052,0.28v1.19
		h21.699v-1.19l-1.264-0.354c-2.808-0.772-3.02-0.91-3.02-4.21V51.174c0-6.246-3.718-9.404-9.064-9.404
		c-5.538,0-9.827,2.804-13.619,5.754h-0.207v-5.336l-0.561-0.418l-17.489,1.825v0.699l2.247,1.618
		c2.179,1.544,2.248,1.825,2.248,4.913v23.022c0,3.227-0.138,3.438-2.951,4.21l-1.259,0.354V79.602z"/>
	<path style="fill:#FFFFFF;" d="M190.853,39.485c4.054,0,7.152-2.505,7.152-6.559c0-3.98-3.098-6.563-7.152-6.563
		c-3.98,0-7.152,2.583-7.152,6.563C183.701,36.98,186.873,39.485,190.853,39.485"/>
	<path style="fill:#FFFFFF;" d="M179.842,79.602h22.259v-1.19l-1.264-0.354c-2.808-0.772-2.951-0.984-2.951-4.21V51.174
		c0-3.089,0.069-5.543,0.28-8.986l-0.561-0.418l-18.187,1.825v0.63l2.247,1.613c2.179,1.544,2.39,1.829,2.39,4.913v23.096
		c0,3.227-0.143,3.438-2.951,4.21l-1.264,0.354V79.602z"/>
	<path style="fill:#FFFFFF;" d="M133.644,79.602h21.625v-1.19l-1.053-0.28c-2.39-0.634-2.528-0.703-2.528-4.284V49.418
		c1.195-0.28,2.666-0.418,4.633-0.418c2.597,0,4.146,1.053,4.146,4.84v20.007c0,3.507-0.074,3.649-2.528,4.284l-1.057,0.28v1.19
		h21.699v-1.19l-1.264-0.354c-2.808-0.772-3.02-0.91-3.02-4.21V51.174c0-6.246-3.723-9.404-9.059-9.404
		c-5.543,0-9.827,2.804-13.619,5.754h-0.211v-5.336l-0.561-0.418l-17.484,1.825v0.699l2.248,1.618
		c2.174,1.544,2.248,1.825,2.248,4.913v23.022c0,3.227-0.143,3.438-2.951,4.21l-1.264,0.354V79.602z"/>
	<path style="fill:#FFFFFF;" d="M116.931,43.736c3.369,0,4.284,2.597,4.284,12.561L111.806,57
		C111.875,46.259,114.053,43.736,116.931,43.736 M117.211,80.446c8.007,0,13.554-4.426,15.94-7.795v-1.333
		c-1.958,1.452-5.364,2.459-9.156,2.459c-7.51,0-11.978-2.67-12.189-14.883h22.82c-0.349-12.212-6.812-17.125-17.135-17.125
		c-9.266,0-19.309,6.007-19.309,19.272C98.183,73.253,104.571,80.446,117.211,80.446"/>
	<path style="fill:#FFFFFF;" d="M79.858,79.602h6.531l11.091-28.57c1.898-4.909,2.882-6.035,4.918-6.807l0.91-0.349V42.68H90.953
		v1.195l1.544,0.492c1.756,0.561,2.739,1.333,2.739,2.735c0,1.195-0.492,3.089-1.264,5.267l-4.987,14.598h-0.211l-5.828-15.512
		c-0.63-1.613-0.984-2.808-0.984-4.141c0-1.756,0.846-2.385,2.739-2.946l1.613-0.492V42.68H61.882v1.195l1.053,0.349
		c1.825,0.634,2.459,1.406,4.426,6.035L79.858,79.602z"/>
	<path style="fill:#FFFFFF;" d="M20.898,79.602h41.007l0.984-18.67h-1.406c-2.036,5.194-3.511,8.213-5.548,11.582
		c-2.316,3.718-3.3,4.702-8.636,4.702c-4.982,0-5.405-0.915-5.405-4.702V55.527h1.825c4.633,0,5.405,0.561,6.251,2.174
		c1.052,2.105,1.825,4.564,2.316,6.738h1.264V44.717h-1.264c-0.561,2.317-1.333,4.564-2.316,6.458
		c-0.772,1.475-1.475,2.105-6.182,2.105h-1.894V33.768c0.772-0.211,1.99-0.423,4.798-0.423c4.072,0,5.902,0.841,8.007,4.21
		c1.544,2.459,2.877,5.056,4.702,9.34h1.338L60.104,30.96H20.898v1.19l1.898,0.492c2.597,0.703,3.089,0.846,3.089,5.686v33.906
		c0,4.84-0.492,4.982-3.089,5.686l-1.898,0.492V79.602z"/>
	<path style="fill:#FFFFFF;" d="M302.468,129.879c-5.125,0-7.63-3.58-7.63-14.529c0-12.281,2.813-15.857,6.743-15.857
		c2.385,0,3.512,1.195,4.495,3.015v26.529C305.235,129.392,303.875,129.879,302.468,129.879 M294.912,136.13
		c4.844,0,8.282-2.385,11.095-5.056h0.207v4.426l0.915,0.63l16.923-2.454v-0.915l-1.687-0.63c-2.316-0.846-2.385-1.264-2.385-4.987
		V91.068c0-4.702,0.276-8.489,0.276-8.489l-0.556-0.423l-18.748,1.613v0.984l2.804,1.544c2.036,1.126,2.321,1.406,2.321,4.844v7.018
		c-1.333-0.423-2.459-0.699-4.564-0.699c-11.238,0-20.784,5.961-20.784,21.395C280.728,130.582,286.837,136.13,294.912,136.13"/>
	<path style="fill:#FFFFFF;" d="M248.532,135.288h22.54v-1.264l-1.544-0.28c-2.602-0.492-2.951-0.703-2.951-4.215v-23.864
		c0.703-0.63,1.898-0.979,2.882-0.979c0.841,0,1.19,0.349,1.682,1.402c0.984,2.174,2.248,3.718,5.617,3.718
		c3.443,0,5.902-2.321,5.902-6.384c0-3.93-2.39-5.892-5.759-5.892c-4.564,0-8.356,3.438-10.392,5.961h-0.211V97.88l-0.561-0.418
		l-17.484,1.825v0.699l2.243,1.613c2.179,1.544,2.252,1.825,2.252,4.84v23.091c0,3.231-0.143,3.443-2.951,4.215l-1.264,0.349
		V135.288z"/>
	<path style="fill:#FFFFFF;" d="M189.173,129.879c-5.125,0-7.63-3.58-7.63-14.529c0-12.281,2.813-15.857,6.743-15.857
		c2.385,0,3.512,1.195,4.495,3.015v26.529C191.936,129.392,190.58,129.879,189.173,129.879 M181.617,136.13
		c4.844,0,8.282-2.385,11.095-5.056h0.212v4.426l0.91,0.63l16.919-2.454v-0.915l-1.682-0.63c-2.316-0.846-2.385-1.264-2.385-4.987
		V91.068c0-4.702,0.276-8.489,0.276-8.489l-0.556-0.423l-18.748,1.613v0.984l2.808,1.544c2.031,1.126,2.316,1.406,2.316,4.844v7.018
		c-1.333-0.423-2.459-0.699-4.564-0.699c-11.233,0-20.784,5.961-20.784,21.395C167.433,130.582,173.542,136.13,181.617,136.13"/>
	<path style="fill:#FFFFFF;" d="M122.829,135.288h21.625v-1.195l-1.052-0.28c-2.39-0.63-2.528-0.703-2.528-4.284v-24.424
		c1.195-0.28,2.666-0.418,4.633-0.418c2.597,0,4.146,1.053,4.146,4.84v20.003c0,3.512-0.074,3.654-2.528,4.284l-1.053,0.28v1.195
		h21.694v-1.195l-1.264-0.349c-2.808-0.772-3.02-0.91-3.02-4.215v-22.669c0-6.242-3.723-9.399-9.059-9.399
		c-5.543,0-9.827,2.804-13.619,5.75h-0.211V97.88l-0.565-0.418l-17.479,1.825v0.699l2.248,1.613
		c2.174,1.544,2.248,1.825,2.248,4.913v23.018c0,3.231-0.143,3.443-2.951,4.215l-1.264,0.349V135.288z"/>
	<path style="fill:#FFFFFF;" d="M102.117,130.867c-1.898,0-3.443-1.475-3.443-6.32c0-4.913,1.264-6.32,4.422-6.531l1.618-0.138
		v11.72C104.222,130.444,103.308,130.867,102.117,130.867 M95.375,136.13c5.267,0,7.933-2.316,9.831-4.564h0.28
		c1.052,2.951,3.861,4.564,8.282,4.564c5.056,0,7.997-1.77,9.482-3.273v-1.053c-0.63,0-2.248-0.211-3.158-0.703
		c-1.337-0.703-1.549-1.687-1.549-4.775v-18.84c0-7.432-5.828-10.024-14.814-10.024c-12.005,0-17.135,3.227-17.135,7.993
		c0,2.946,1.898,4.559,5.69,4.559c4.21,0,5.686-1.54,6.039-7.575c0.138-2.523,1.052-2.877,2.808-2.877
		c2.877,0,3.58,2.248,3.58,8.701v6.733l-8.007,2.174c-5.966,1.618-11.514,3.443-11.514,10.185
		C85.194,132.83,89.124,136.13,95.375,136.13"/>
	<path style="fill:#FFFFFF;" d="M227.816,130.867c-1.894,0-3.438-1.475-3.438-6.32c0-4.913,1.264-6.32,4.426-6.531l1.613-0.138
		v11.72C229.921,130.444,229.011,130.867,227.816,130.867 M221.078,136.13c5.267,0,7.933-2.316,9.831-4.564h0.28
		c1.053,2.951,3.861,4.564,8.282,4.564c5.056,0,7.997-1.77,9.482-3.273v-1.053c-0.634,0-2.247-0.211-3.162-0.703
		c-1.333-0.703-1.544-1.687-1.544-4.775v-18.84c0-7.432-5.828-10.024-14.814-10.024c-12.005,0-17.135,3.227-17.135,7.993
		c0,2.946,1.898,4.559,5.69,4.559c4.21,0,5.686-1.54,6.035-7.575c0.143-2.523,1.057-2.877,2.813-2.877
		c2.877,0,3.58,2.248,3.58,8.701v6.733l-8.007,2.174c-5.966,1.618-11.514,3.443-11.514,10.185
		C210.897,132.83,214.827,136.13,221.078,136.13"/>
	<path style="fill:#FFFFFF;" d="M72.624,136.13c6.6,0,9.969-3.02,11.867-5.263v-1.195c-1.052,0.28-2.951,0.561-4.564,0.561
		c-3.792,0-4.564-1.053-4.564-5.194v-22.88h8.425l0.561-3.787h-8.986v-9.827h-3.512c-2.316,5.194-7.878,9.739-13.986,11.982v1.632
		h3.663v22.806C61.529,132.83,64.76,136.13,72.624,136.13"/>
	<path style="fill:#FFFFFF;" d="M38.05,136.13c12.359,0,19.86-7.832,19.86-17.103c0-7.653-4.854-12.309-16.018-16.165
		c-7.515-2.666-9.477-4.84-9.477-8.563c0-3.999,2.795-6.458,7.009-6.458c2.735,0,4.923,0.634,7.519,3.443
		c2.528,2.735,3.925,6.384,5.607,10.034h1.475l-0.699-13.334c-2.528-1.19-6.954-2.179-12.782-2.179
		c-11.164,0-19.015,6.485-19.015,15.747c0,7.786,3.231,12.46,13.619,15.972c7.515,2.528,11.615,3.76,11.615,10.075
		c0,4.353-3.447,6.494-7.942,6.494c-3.861,0-7.041-1.471-9.638-4.702c-2.179-2.739-4.003-6.039-6.177-10.461h-1.475l0.915,15.025
		C25.796,135.036,31.027,136.13,38.05,136.13"/>
	<path style="fill:#FFFFFF;" d="M156.029,35.518h9.427v-0.717l-0.46-0.124c-1.039-0.276-1.103-0.303-1.103-1.866V22.364
		c0.519-0.124,1.163-0.184,2.018-0.184c1.135,0,1.806,0.46,1.806,2.11v8.521c0,1.531-0.028,1.59-1.099,1.866l-0.464,0.124v0.717
		h9.464v-0.717l-0.552-0.152c-1.227-0.336-1.315-0.4-1.315-1.838v-9.684c0-2.721-1.627-4.1-3.948-4.1
		c-2.422,0-4.288,1.223-5.938,2.51h-0.092v-2.326l-0.244-0.184l-7.625,0.795v0.506l0.979,0.703c0.951,0.671,0.979,0.795,0.979,2.142
		v9.638c0,1.411-0.06,1.503-1.282,1.838l-0.552,0.152V35.518z"/>
	<path style="fill:#FFFFFF;" d="M147.404,34.8c-1.774,0-2.537-0.657-2.537-7.694c0-6.15,0.947-6.995,2.385-6.995
		c1.531,0,2.569,0.57,2.569,7.542C149.822,34.295,148.999,34.8,147.404,34.8 M147.344,35.885c4.376,0,8.724-2.293,8.724-8.475
		c0-5.722-4.228-8.383-8.724-8.383c-4.288,0-8.724,2.298-8.724,8.508C138.621,33.224,142.812,35.885,147.344,35.885"/>
	<path style="fill:#FFFFFF;" d="M128.987,33.164c-2.234,0-3.153-1.563-3.153-6.334c0-5.355,1.227-6.72,2.937-6.72
		c1.043,0,1.531,0.524,1.958,1.315v11.371C130.366,32.948,129.599,33.164,128.987,33.164 M125.867,35.885
		c2.11,0,3.613-1.039,4.835-2.202h0.092v1.926l0.395,0.276l7.377-1.071v-0.593l-0.735-0.276c-1.007-0.368-1.039-0.552-1.039-2.174
		V16.241c0-2.045,0.124-3.7,0.124-3.7l-0.244-0.184l-8.177,0.703v0.625l1.227,0.676c0.887,0.492,1.007,0.611,1.007,2.11v2.863
		c-0.579-0.184-1.071-0.308-1.986-0.308c-4.9,0-9.059,2.601-9.059,9.335C119.685,33.472,122.346,35.885,125.867,35.885"/>
	<path style="fill:#FFFFFF;" d="M99.98,35.518h9.427v-0.717l-0.46-0.124c-1.039-0.276-1.098-0.303-1.098-1.866V22.364
		c0.519-0.124,1.158-0.184,2.018-0.184c1.131,0,1.806,0.46,1.806,2.11v8.521c0,1.531-0.032,1.59-1.103,1.866l-0.46,0.124v0.717
		h9.459v-0.717l-0.552-0.152c-1.223-0.336-1.315-0.4-1.315-1.838v-9.684c0-2.721-1.622-4.1-3.948-4.1
		c-2.418,0-4.288,1.223-5.938,2.51h-0.092v-2.326l-0.248-0.184l-7.621,0.795v0.506l0.979,0.703c0.951,0.671,0.979,0.795,0.979,2.142
		v9.638c0,1.411-0.06,1.503-1.282,1.838l-0.552,0.152V35.518z"/>
	<path style="fill:#FFFFFF;" d="M91.262,34.8c-1.774,0-2.537-0.657-2.537-7.694c0-6.15,0.947-6.995,2.385-6.995
		c1.531,0,2.569,0.57,2.569,7.542C93.68,34.295,92.857,34.8,91.262,34.8 M91.203,35.885c4.376,0,8.724-2.293,8.724-8.475
		c0-5.722-4.224-8.383-8.724-8.383c-4.284,0-8.724,2.298-8.724,8.508C82.479,33.224,86.671,35.885,91.203,35.885"/>
	<path style="fill:#FFFFFF;" d="M63.462,35.518h17.475l0.616-8.535h-0.814c-0.915,2.326-1.806,4.343-2.537,5.566
		c-1.011,1.687-1.149,1.958-3.447,1.958c-1.926,0-2.142-0.363-2.142-1.986V17.726c0-2.114,0.152-2.234,1.347-2.477l1.011-0.216
		v-0.717H63.462v0.717l0.827,0.216c1.131,0.303,1.347,0.363,1.347,2.477v14.382c0,2.114-0.216,2.174-1.347,2.482l-0.827,0.211
		V35.518z"/>
</g>
</svg>
