<?xml version="1.0" encoding="iso-8859-1"?>
<!-- Generator: Adobe Illustrator 20.0.0, SVG Export Plug-In . SVG Version: 6.00 Build 0)  -->
<!DOCTYPE svg PUBLIC "-//W3C//DTD SVG 1.1//EN" "http://www.w3.org/Graphics/SVG/1.1/DTD/svg11.dtd">
<svg version="1.1" id="Layer_1" xmlns="http://www.w3.org/2000/svg" xmlns:xlink="http://www.w3.org/1999/xlink" x="0px" y="0px"
	 viewBox="0 0 350 150" style="enable-background:new 0 0 350 150;" xml:space="preserve">
<path style="fill-rule:evenodd;clip-rule:evenodd;fill:#FFFFFF;" d="M340,114.791h-10.317v-10.945H340V114.791z M262.662,114.791
	v-1.836c4.692,0,5.406-0.817,5.406-9.589V44.818h-4.896v-1.836h21.217l11.322,44.576h0.204l11.322-44.576h20.605v1.836h-4.896
	v68.138h4.896v1.836h-25.092v-1.836h5.508V46.654h-0.204l-16.831,68.137h-3.366L270.72,46.042h-0.204v57.325
	c0,8.772,0.918,9.589,5.508,9.589v1.836H262.662z M261.034,114.791h-10.317v-10.945h10.317V114.791z M223.477,91.331l-6.936-25.195
	h-0.204l-6.63,25.195H223.477z M196.752,114.791v-1.836c3.468,0,5.202-1.224,6.018-4.284l18.157-65.69h4.896l18.768,69.974h4.488
	v1.836h-24.787v-1.836h4.896l-5.202-19.789h-14.689l-2.448,9.385c-1.122,3.978-1.938,7.14-1.938,8.058
	c0,2.244,3.978,2.347,5.406,2.347v1.836H196.752z"/>
<path style="fill-rule:evenodd;clip-rule:evenodd;fill:#FFFFFF;" d="M152.129,114.933v-1.836h5.406V82.191L142.54,44.96h-3.672
	v-1.836h23.766v1.836h-4.284l12.75,32.539L181.709,52.1c1.02-2.347,1.734-3.978,1.734-5.1c0-2.04-2.856-2.04-4.692-2.04v-1.836
	h12.648v1.836c-4.386,0-4.896,0.408-7.344,6.528l-11.22,27.745v33.865h5.406v1.836H152.129 M97.865,114.933v-1.836h6.529V44.96
	c-11.526,1.224-14.79,11.424-15.301,21.523h-1.836V43.124h49.573v23.359h-1.836c-0.51-10.099-3.774-20.299-15.301-21.523v68.138
	h6.529v1.836H97.865z M58.799,114.933v-1.836h5.1V44.96h-5.1v-1.836h25.5v1.836H79.2v68.138h5.099v1.836H58.799z M53.292,43.124
	v20.809h-1.836c-1.02-8.466-5.508-20.401-14.586-20.401c-7.446,0-9.078,7.14-9.078,18.564v37.231c0,6.63,1.224,15.198,8.568,15.198
	c9.486,0,14.994-10.098,15.81-20.4h1.836v20.808h-1.836c0-1.632-0.612-3.672-2.346-3.672c-2.244,0-6.325,5.1-13.464,5.1
	c-15.607,0-25.705-17.545-25.705-37.333c0-19.789,10.098-37.333,25.705-37.333c7.65,0,10.506,5.712,12.852,5.712
	c1.53,0,2.04-1.938,2.243-4.284H53.292z"/>
</svg>
