<svg id="Layer_1" data-name="Layer 1" xmlns="http://www.w3.org/2000/svg" viewBox="0 0 328.75 99.05"><title>logo-investors-chronicle</title><path d="M32.63,100.57A9,9,0,0,0,25.36,97c-6.49,0-11.08,5.71-11.08,12.07,0,6.73,4.56,12.07,11.08,12.07a10.25,10.25,0,0,0,8.42-4.06l2.59,2.17c-2.59,3.49-6.36,5.09-11,5.09-8.33,0-14.78-6.45-14.78-15.27,0-8.54,6.16-15.27,14.78-15.27,3.94,0,7.8,1.35,10.26,4.56Z" transform="translate(-10.58 -25.33)" fill="#fff"/><polygon points="28.54 69.25 31.98 69.25 31.98 81.56 47.5 81.56 47.5 69.25 50.95 69.25 50.95 98.32 47.5 98.32 47.5 84.77 31.98 84.77 31.98 98.32 28.54 98.32 28.54 69.25" fill="#fff"/><path d="M70.16,107.39h3.08c3.82,0,8.79,0,8.79-4.8,0-4.19-3.65-4.8-7-4.8H70.16ZM66.71,94.58h7.43c5.62,0,11.58.82,11.58,8,0,4.23-2.75,7-7.27,7.68l8.25,13.38H82.47l-7.88-13.06H70.16v13.06H66.71Z" transform="translate(-10.58 -25.33)" fill="#fff"/><path d="M114.74,109.11c0-6.69-4.68-12.07-11.5-12.07s-11.49,5.38-11.49,12.07,4.68,12.07,11.49,12.07,11.5-5.38,11.5-12.07m-26.69,0c0-8.79,6.36-15.27,15.19-15.27s15.19,6.48,15.19,15.27-6.36,15.27-15.19,15.27-15.19-6.49-15.19-15.27" transform="translate(-10.58 -25.33)" fill="#fff"/><path d="M152.65,94.58h3.45v29.07h-3.45Zm-30.71,0h4.35l16.83,24.14h.08V94.58h3.45v29.07H142.3L125.47,99.51h-.08v24.14h-3.45Z" transform="translate(-10.58 -25.33)" fill="#fff"/><path d="M182.45,100.57A8.94,8.94,0,0,0,175.19,97c-6.49,0-11.09,5.71-11.09,12.07,0,6.73,4.56,12.07,11.09,12.07a10.24,10.24,0,0,0,8.41-4.06l2.59,2.17c-2.59,3.49-6.36,5.09-11,5.09-8.33,0-14.78-6.45-14.78-15.27,0-8.54,6.16-15.27,14.78-15.27,3.94,0,7.8,1.35,10.26,4.56Z" transform="translate(-10.58 -25.33)" fill="#fff"/><polygon points="178.37 69.25 181.81 69.25 181.81 95.11 195.12 95.11 195.12 98.32 178.37 98.32 178.37 69.25" fill="#fff"/><polygon points="197.66 69.25 215.93 69.25 215.93 72.45 201.11 72.45 201.11 81.56 214.95 81.56 214.95 84.77 201.11 84.77 201.11 95.11 216.67 95.11 216.67 98.32 197.66 98.32 197.66 69.25" fill="#fff"/><path d="M12.33,44.95H25.88v43.9H12.33ZM185.95,57.86a9.67,9.67,0,0,0-7.86-3.7c-2.26,0-5,1-5,3.61,0,6.51,22.85,1,22.85,17.71,0,11.2-10.84,14.45-20.23,14.45-6.14,0-12.92-1.54-17.25-6l8.22-9.13a11.77,11.77,0,0,0,9.57,4.79c3.07,0,6.14-.81,6.14-3.16,0-7-22.85-1.08-22.85-17.8,0-10.3,9.21-14.82,18.43-14.82,5.78,0,12.19,1.45,16.26,5.78Z" transform="translate(-10.58 -25.33)" fill="#fff"/><path d="M29.31,44.94h13v6h.18c1.81-3.43,6.23-7,12.83-7,13.73,0,16.26,9,16.26,20.78V88.85H58V67.35c0-5.06-.09-11.56-7-11.56S42.86,61.29,42.86,67V88.85H29.31Z" transform="translate(-10.58 -25.33)" fill="#fff"/><polygon points="58.3 19.61 72.93 19.61 84.05 49.42 84.22 49.42 94.52 19.61 108.16 19.61 90.82 63.52 76.45 63.52 58.3 19.61" fill="#fff"/><path d="M145.21,61.93a8.12,8.12,0,0,0-8.31-8.31c-6,0-9.21,4.07-9.58,8.31Zm11.47,19.33a23.85,23.85,0,0,1-18.52,8.67c-13.55,0-24.39-9-24.39-23s10.84-23,24.39-23c12.65,0,20.6,9,20.6,23v4.25H127.32c1.09,5.15,5,8.49,10.21,8.49,4.43,0,7.41-2.26,9.67-5.33Z" transform="translate(-10.58 -25.33)" fill="#fff"/><path d="M226.51,55.79H214.58V70.42c0,4.7.54,8.13,6.41,8.13,1.44,0,4.33-.18,5.51-1.26V88.57A28.08,28.08,0,0,1,217,89.93c-9,0-16-3.7-16-13.28V55.79h-6.34V44.94H201v-13h13.55v13h11.92Z" transform="translate(-10.58 -25.33)" fill="#fff"/><path d="M249.81,78c6.77,0,10.84-4.52,10.84-11.11s-4.07-11.11-10.84-11.11S239,60.3,239,66.89,243,78,249.81,78m0-34.15c13.55,0,24.39,9,24.39,23s-10.84,23-24.39,23-24.39-9-24.39-23,10.84-23,24.39-23" transform="translate(-10.58 -25.33)" fill="#fff"/><path d="M302.11,43.86c-5.91,0-9.68,2.82-12.56,8.13h-.18v-7H275.83v43.9h13.55V70.51c0-8.76,1.27-14.73,11.56-14.73.4,0,.78,0,1.17.05Z" transform="translate(-10.58 -25.33)" fill="#fff"/><path d="M329.31,57.86a9.67,9.67,0,0,0-7.86-3.7c-2.26,0-5,1-5,3.61,0,6.51,22.86,1,22.86,17.71,0,11.2-10.84,14.45-20.24,14.45-6.14,0-12.92-1.54-17.25-6l8.22-9.13a11.77,11.77,0,0,0,9.58,4.79c3.07,0,6.14-.81,6.14-3.16,0-7-22.85-1.08-22.85-17.8,0-10.3,9.21-14.82,18.43-14.82,5.78,0,12.19,1.45,16.26,5.78Z" transform="translate(-10.58 -25.33)" fill="#fff"/><path d="M27,33.19A7.86,7.86,0,1,0,19.1,41,7.86,7.86,0,0,0,27,33.19" transform="translate(-10.58 -25.33)" fill="#fff"/></svg>