<?xml version="1.0" encoding="utf-8"?>
<!-- Generator: Adobe Illustrator 19.0.0, SVG Export Plug-In . SVG Version: 6.00 Build 0)  -->
<!DOCTYPE svg PUBLIC "-//W3C//DTD SVG 1.1//EN" "http://www.w3.org/Graphics/SVG/1.1/DTD/svg11.dtd">
<svg version="1.1" id="Layer_1" xmlns="http://www.w3.org/2000/svg" xmlns:xlink="http://www.w3.org/1999/xlink" x="0px" y="0px"
	 viewBox="-299 233.5 135 135" style="enable-background:new -299 233.5 135 135;" xml:space="preserve">
<style type="text/css">
	.st0{fill:#F7931E;}
	.st1{fill:#FFFFFF;}
	.st2{opacity:6.000000e-02;enable-background:new    ;}
	.st3{fill:#D3D3D3;}
</style>
<g id="XMLID_19_">
	<g id="XMLID_23_">
		<path id="XMLID_35_" class="st0" d="M-232.5,362.8c-3,0-5.8-0.6-8-1.8l-38.5-20.6c-4.6-2.4-8.2-8.4-8.2-13.6v-51.6
			c0-5.2,3.6-11.2,8.2-13.6l38.5-20.6c2.2-1.2,5-1.8,8-1.8c3,0,5.8,0.6,8,1.8l38.5,20.6c4.6,2.5,8.2,8.4,8.2,13.6v51.6
			c0,5.2-3.6,11.2-8.2,13.6l-38.5,20.6C-226.7,362.2-229.5,362.8-232.5,362.8L-232.5,362.8z"/>
		<path id="XMLID_32_" class="st1" d="M-232.5,242.3c2.4,0,4.7,0.5,6.5,1.4l38.5,20.6c3.6,1.9,6.5,6.8,6.5,10.8v51.6
			c0,4.1-2.9,8.9-6.5,10.8l-38.5,20.6c-1.8,1-4.1,1.4-6.5,1.4c-2.4,0-4.7-0.5-6.5-1.4l-38.5-20.6c-3.6-1.9-6.5-6.8-6.5-10.8v-51.6
			c0-4.1,2.9-8.9,6.5-10.8l38.5-20.6C-237.2,242.8-234.9,242.3-232.5,242.3 M-232.5,235.9c-3.5,0-6.9,0.8-9.5,2.2l-38.5,20.6
			c-5.6,3-9.9,10.1-9.9,16.5v51.6c0,6.4,4.2,13.5,9.9,16.5l38.5,20.6c2.6,1.4,6,2.2,9.5,2.2c3.5,0,6.9-0.8,9.5-2.2l38.5-20.6
			c5.6-3,9.9-10.1,9.9-16.5v-51.6c0-6.4-4.2-13.5-9.9-16.5l-38.5-20.6C-225.6,236.7-229,235.9-232.5,235.9L-232.5,235.9z"/>
	</g>
</g>
<path id="XMLID_14_" class="st2" d="M-284,326.8c0,4.1,2.7,8.9,6.3,10.8l38.4,20.6c3.6,1.9,9.4,1.9,12.9,0l38.7-20.6
	c3.6-1.9,6.7-6.8,6.7-10.8v-26.2h-103V326.8z"/>
<g id="XMLID_11_">
	<polygon id="XMLID_6_" class="st1" points="-211.4,262.3 -231.9,274.1 -252.6,262.3 -252.6,285.8 -232,297.5 -232,297.5 
		-232,297.5 -232,297.5 -232,297.5 -211.4,285.8 	"/>
	<polygon id="XMLID_15_" class="st3" points="-252.6,262.3 -232.2,250.6 -211.4,262.3 -231.9,274.1 	"/>
	<polygon id="XMLID_7_" class="st3" points="-255.8,289.5 -276,301.3 -276,324.7 -256,336.4 -256,313 -235.4,301.3 	"/>
	<polygon id="XMLID_5_" class="st3" points="-208.4,290 -228.5,301.7 -208,313.4 -208,336.9 -188,325.2 -188,301.7 	"/>
	<polygon id="XMLID_3_" class="st1" points="-235.4,324.6 -235.4,301.3 -256,313 -256,336.4 -241.4,328.1 -241.4,363.5 
		-235.4,360.4 	"/>
	<polygon id="XMLID_4_" class="st1" points="-208,313.4 -228.6,301.7 -228.6,324.6 -228.6,324.6 -228.6,360.4 -222.6,363.5 
		-222.6,328.5 -208,336.9 	"/>
</g>
</svg>
