<?xml version="1.0" encoding="iso-8859-1"?>
<!-- Generator: Adobe Illustrator 20.0.0, SVG Export Plug-In . SVG Version: 6.00 Build 0)  -->
<!DOCTYPE svg PUBLIC "-//W3C//DTD SVG 1.1//EN" "http://www.w3.org/Graphics/SVG/1.1/DTD/svg11.dtd">
<svg version="1.1" id="Layer_1" xmlns="http://www.w3.org/2000/svg" xmlns:xlink="http://www.w3.org/1999/xlink" x="0px" y="0px"
	 viewBox="0 0 700 150" style="enable-background:new 0 0 700 150;" xml:space="preserve">
<path style="fill-rule:evenodd;clip-rule:evenodd;fill:#FFFFFF;" d="M44.106,91.59c0,4.657,1.163,5.239,6.986,5.82v1.746H28.39
	V97.41c4.656-0.582,5.821-1.163,5.821-5.82V58.41c0-5.239-1.165-5.82-5.821-5.82v-1.746h40.747v10.478H67.39
	c-1.746-5.239-3.493-6.985-13.389-6.985h-6.985c-2.328,0-2.909,0.582-2.909,2.328v15.135h8.148c7.569,0,9.315-1.165,10.478-6.404
	h1.746v17.463h-1.746c-1.163-5.82-4.074-6.985-10.478-6.985h-8.148V91.59L44.106,91.59z"/>
<path style="fill-rule:evenodd;clip-rule:evenodd;fill:#FFFFFF;" d="M90.673,91.59c0,4.657,1.165,5.239,6.985,5.82v1.746H73.794
	V97.41c5.82-0.582,6.985-1.163,6.985-5.82V58.41c0-5.239-1.165-5.82-6.985-5.82v-1.746h23.865v1.746c-5.82,0-6.985,0.582-6.985,5.82
	V91.59L90.673,91.59z"/>
<path style="fill-rule:evenodd;clip-rule:evenodd;fill:#FFFFFF;" d="M144.809,59.575c0-4.657-1.746-6.404-6.985-6.985v-1.746h17.463
	v1.746c-5.239,0.582-6.985,2.328-6.985,6.985v40.747h-2.328l-33.18-38.419v27.941c0,4.657,1.746,6.985,6.985,7.567v1.746h-17.463
	V97.41c5.239-0.582,6.985-2.909,6.985-7.567V57.245c-1.746-2.909-4.074-4.074-6.985-4.656v-1.746h13.389l29.104,33.18V59.575
	L144.809,59.575z"/>
<path style="fill-rule:evenodd;clip-rule:evenodd;fill:#FFFFFF;" d="M166.348,81.694l7.567-19.209l6.985,19.209H166.348
	L166.348,81.694z M201.273,99.157V97.41c-3.493,0-4.657-1.746-6.404-6.402l-16.881-41.33h-2.328l-18.045,43.076
	c-1.165,2.909-2.911,4.074-5.822,4.656v1.746h15.135V97.41c-2.911,0-4.657-0.582-4.657-3.493c0-1.747,2.329-6.985,2.911-8.732
	h17.463c0.582,1.746,2.911,6.985,2.911,8.732c0,2.911-1.746,3.493-5.239,3.493v1.746H201.273L201.273,99.157z"/>
<path style="fill-rule:evenodd;clip-rule:evenodd;fill:#FFFFFF;" d="M243.185,59.575c0-4.657-1.165-6.404-6.404-6.985v-1.746h16.881
	v1.746c-5.239,0.582-6.404,2.328-6.404,6.985v40.747h-2.328l-33.18-38.419v27.941c0,4.657,1.163,6.985,6.402,7.567v1.746h-16.88
	V97.41c5.239-0.582,6.402-2.909,6.402-7.567V57.245c-1.746-2.909-3.493-4.074-6.402-4.656v-1.746h13.387l28.524,33.18V59.575
	L243.185,59.575z"/>
<path style="fill-rule:evenodd;clip-rule:evenodd;fill:#FFFFFF;" d="M301.976,87.516c-4.656,8.732-11.641,12.806-21.537,12.806
	c-15.717,0-25.03-10.478-25.03-25.613c0-11.059,8.732-25.03,25.611-25.03c4.657,0,12.224,2.911,13.389,2.911
	c1.165,0,1.746-1.165,2.911-2.911h2.328l1.165,15.717h-2.33c-2.909-6.985-8.148-12.806-16.298-12.806
	c-11.643,0-16.298,12.806-16.298,22.119c0,12.808,5.239,21.539,17.463,21.539c9.313,0,14.552-6.985,16.88-9.896L301.976,87.516
	L301.976,87.516z"/>
<path style="fill-rule:evenodd;clip-rule:evenodd;fill:#FFFFFF;" d="M322.35,91.59c0,4.657,1.746,5.239,7.567,5.82v1.746h-24.448
	V97.41c5.822-0.582,7.569-1.163,7.569-5.82V58.41c0-5.239-1.746-5.82-7.569-5.82v-1.746h24.448v1.746
	c-5.82,0-7.567,0.582-7.567,5.82V91.59L322.35,91.59z"/>
<path style="fill-rule:evenodd;clip-rule:evenodd;fill:#FFFFFF;" d="M345.633,81.694l7.569-19.209l6.985,19.209H345.633
	L345.633,81.694z M380.559,99.157V97.41c-3.493,0-4.656-1.746-6.402-6.402l-16.882-41.33h-2.328l-18.046,43.076
	c-1.163,2.909-2.909,4.074-5.82,4.656v1.746h15.717V97.41c-3.493,0-5.239-0.582-5.239-3.493c0-1.747,2.328-6.985,2.911-8.732h17.463
	c0.581,1.746,2.909,6.985,2.909,8.732c0,2.911-1.746,3.493-5.239,3.493v1.746H380.559L380.559,99.157z"/>
<path style="fill-rule:evenodd;clip-rule:evenodd;fill:#FFFFFF;" d="M382.889,99.157V97.41c4.656-0.582,6.402-1.163,6.402-5.82
	V58.41c0-5.239-1.746-5.82-6.402-5.82v-1.746h22.702v1.746c-5.239,0-6.985,0.582-6.985,5.82v33.761c0,2.911,1.163,4.076,6.402,4.076
	c8.731,0,13.97-1.746,18.046-9.896h1.746l-3.493,12.806H382.889L382.889,99.157z"/>
<path style="fill-rule:evenodd;clip-rule:evenodd;fill:#FFFFFF;" d="M455.069,97.41c5.239-0.582,6.985-1.163,6.985-5.82V54.336
	h-6.404c-5.239,0-7.567,2.328-9.313,8.732h-1.746l1.165-12.224h42.492l0.582,12.224h-1.746c-1.746-6.404-4.074-8.732-9.313-8.732
	h-6.404V91.59c0,4.657,1.746,5.239,6.985,5.82v1.746h-23.283V97.41L455.069,97.41z"/>
<path style="fill-rule:evenodd;clip-rule:evenodd;fill:#FFFFFF;" d="M509.204,91.59c0,4.657,1.165,5.239,6.985,5.82v1.746h-23.867
	V97.41c5.822-0.582,6.985-1.163,6.985-5.82V58.41c0-5.239-1.163-5.82-6.985-5.82v-1.746h23.867v1.746
	c-5.82,0-6.985,0.582-6.985,5.82V91.59L509.204,91.59z"/>
<path style="fill-rule:evenodd;clip-rule:evenodd;fill:#FFFFFF;" d="M564.504,50.843h16.88v1.746c-4.656,0-5.82,0.582-5.82,5.82
	v33.18c0,4.657,1.165,5.239,5.82,5.82v1.746h-22.119V97.41c5.239-0.582,6.402-1.163,6.402-5.82V57.245l0,0L549.369,99.74h-2.328
	l-15.717-42.495l0,0v32.598c0,4.657,1.163,6.985,6.402,7.567v1.746h-16.88V97.41c5.239-0.582,6.402-2.909,6.402-7.567V57.245
	c0-3.492-1.746-4.656-6.402-4.656v-1.746h17.463l12.806,33.18L564.504,50.843L564.504,50.843z"/>
<path style="fill-rule:evenodd;clip-rule:evenodd;fill:#FFFFFF;" d="M588.369,99.157V97.41c4.658-0.582,5.822-1.163,5.822-5.82
	V58.41c0-5.239-1.165-5.82-5.822-5.82v-1.746h40.748v10.478h-1.746c-1.747-5.239-3.493-6.985-13.389-6.985h-6.985
	c-2.328,0-2.911,0.582-2.911,2.328v15.135h8.15c7.567,0,9.313-1.165,10.478-6.404h1.746v17.463h-1.746
	c-1.165-5.82-4.074-6.985-10.478-6.985h-8.15v16.298c0,2.911,0.583,4.076,9.315,4.076c8.732,0,13.971-1.746,18.045-9.896h1.746
	l-2.911,12.806H588.369L588.369,99.157z"/>
<path style="fill-rule:evenodd;clip-rule:evenodd;fill:#FFFFFF;" d="M637.266,84.023h1.746c2.33,6.402,8.15,12.806,15.717,12.806
	c5.822,0,8.15-4.074,8.15-8.15c0-11.059-25.03-12.806-25.03-26.776c0-6.985,6.402-12.224,13.971-12.224
	c6.985,0,9.894,2.328,12.806,2.328c1.165,0,2.328-1.163,2.911-2.328h1.746v15.135h-1.746c-2.33-6.985-6.985-12.224-13.97-12.224
	c-5.239,0-6.985,3.493-6.985,6.985c0,9.895,25.03,9.895,25.03,27.358c0,7.569-6.404,13.389-15.135,13.389
	c-8.731,0-11.059-2.911-13.97-2.911c-1.746,0-2.328,0.583-2.909,2.33h-2.33V84.023L637.266,84.023z"/>
</svg>
